<?xml version="1.0" encoding="utf-8"?>
<!-- Generator: Adobe Illustrator 19.0.1, SVG Export Plug-In . SVG Version: 6.00 Build 0)  -->
<svg version="1.1" xmlns="http://www.w3.org/2000/svg" xmlns:xlink="http://www.w3.org/1999/xlink" x="0px" y="0px"
	 viewBox="0 0 960 150" style="enable-background:new 0 0 960 150;" xml:space="preserve">
<style type="text/css">
	.st0{display:none;}
	.st1{display:inline;}
	.st2{display:inline;opacity:0.44;}
	.st3{fill:url(#SVGID_1_);}
	.st4{fill:url(#SVGID_2_);}
	.st5{fill:url(#SVGID_3_);}
	.st6{fill:url(#SVGID_4_);}
	.st7{fill:url(#SVGID_5_);}
	.st8{fill:url(#SVGID_6_);}
	.st9{fill:url(#SVGID_7_);}
	.st10{fill:url(#SVGID_8_);}
	.st11{fill:url(#SVGID_9_);}
	.st12{fill:url(#SVGID_10_);}
	.st13{fill:url(#SVGID_11_);}
	.st14{fill:url(#SVGID_12_);}
	.st15{fill:url(#SVGID_13_);}
	.st16{fill:url(#SVGID_14_);}
	.st17{fill:url(#SVGID_15_);}
	.st18{opacity:0.14;}
	.st19{fill:url(#SVGID_16_);}
	.st20{fill:url(#SVGID_17_);}
	.st21{fill:url(#SVGID_18_);}
</style>
<g id="Слой_1" class="st0">
	<g class="st1">
		<rect y="40.4" width="959.9" height="119"/>
	</g>
	<g class="st2">
		<linearGradient id="SVGID_1_" gradientUnits="userSpaceOnUse" x1="0.4997" y1="100.5567" x2="196.3283" y2="100.5567">
			<stop  offset="0" style="stop-color:#FFFFFF"/>
			<stop  offset="1" style="stop-color:#1D1D1B"/>
		</linearGradient>
		<polygon class="st3" points="194.4,160.7 0.5,40.4 18.3,40.4 196.3,160.8 		"/>
	</g>
	<g class="st2">
		
			<linearGradient id="SVGID_2_" gradientUnits="userSpaceOnUse" x1="498.8529" y1="100.9343" x2="653.6815" y2="100.9343" gradientTransform="matrix(-1 0 0 -1 1129.5344 201.8685)">
			<stop  offset="0" style="stop-color:#FFFFFF"/>
			<stop  offset="1" style="stop-color:#1D1D1B"/>
		</linearGradient>
		<polygon class="st4" points="477.8,40.7 630.7,161.1 612.9,161.1 475.9,40.7 		"/>
	</g>
	<g class="st2">
		<linearGradient id="SVGID_3_" gradientUnits="userSpaceOnUse" x1="123.418" y1="100.7552" x2="156.0392" y2="100.7552">
			<stop  offset="0" style="stop-color:#FFFFFF"/>
			<stop  offset="1" style="stop-color:#1D1D1B"/>
		</linearGradient>
		<polygon class="st5" points="128.4,161.1 123.4,160.4 149.6,40.4 156,40.4 		"/>
	</g>
	<g class="st2">
		<linearGradient id="SVGID_4_" gradientUnits="userSpaceOnUse" x1="149.5641" y1="100.5761" x2="243.0778" y2="100.5761">
			<stop  offset="0" style="stop-color:#FFFFFF"/>
			<stop  offset="1" style="stop-color:#1D1D1B"/>
		</linearGradient>
		<polygon class="st6" points="235.4,160.8 149.6,40.4 162.1,40.4 243.1,160.8 		"/>
	</g>
	<g class="st2">
		
			<linearGradient id="SVGID_5_" gradientUnits="userSpaceOnUse" x1="420.0961" y1="100.7552" x2="452.7173" y2="100.7552" gradientTransform="matrix(-1 0 0 -1 959.8519 201.5103)">
			<stop  offset="0" style="stop-color:#FFFFFF"/>
			<stop  offset="1" style="stop-color:#1D1D1B"/>
		</linearGradient>
		<polygon class="st7" points="534.8,40.4 539.8,41.2 513.6,161.1 507.1,161.1 		"/>
	</g>
	<g class="st2">
		
			<linearGradient id="SVGID_6_" gradientUnits="userSpaceOnUse" x1="446.2422" y1="100.5761" x2="539.7559" y2="100.5761" gradientTransform="matrix(-1 0 0 -1 959.8519 201.5103)">
			<stop  offset="0" style="stop-color:#FFFFFF"/>
			<stop  offset="1" style="stop-color:#1D1D1B"/>
		</linearGradient>
		<polygon class="st8" points="427.8,40.7 513.6,161.1 501.1,161.1 420.1,40.8 		"/>
	</g>
	<g class="st2">
		<linearGradient id="SVGID_7_" gradientUnits="userSpaceOnUse" x1="716.2263" y1="99.8125" x2="984.8472" y2="99.8125">
			<stop  offset="0" style="stop-color:#FFFFFF"/>
			<stop  offset="1" style="stop-color:#1D1D1B"/>
		</linearGradient>
		<polygon class="st9" points="742.2,160.1 716.2,160 973.1,39.6 984.8,39.6 		"/>
	</g>
	<g class="st2">
		<linearGradient id="SVGID_8_" gradientUnits="userSpaceOnUse" x1="282.1201" y1="99.8125" x2="369.6752" y2="99.8125">
			<stop  offset="0" style="stop-color:#FFFFFF"/>
			<stop  offset="1" style="stop-color:#1D1D1B"/>
		</linearGradient>
		<polygon class="st10" points="290.5,160.1 282.1,159.9 360.8,39.6 369.7,39.6 		"/>
	</g>
	<g class="st2">
		<linearGradient id="SVGID_9_" gradientUnits="userSpaceOnUse" x1="234.4281" y1="100.5568" x2="262.2433" y2="100.5568">
			<stop  offset="0" style="stop-color:#FFFFFF"/>
			<stop  offset="1" style="stop-color:#1D1D1B"/>
		</linearGradient>
		<polygon class="st11" points="256.3,160.8 234.4,40.4 250.8,40.3 262.2,160.7 		"/>
	</g>
	<g class="st2">
		
			<linearGradient id="SVGID_10_" gradientUnits="userSpaceOnUse" x1="1539.6552" y1="1829.8856" x2="1758.2854" y2="1829.8856" gradientTransform="matrix(-0.7071 0.7071 -0.7071 -0.7071 3217.4124 223.7294)">
			<stop  offset="0" style="stop-color:#FFFFFF"/>
			<stop  offset="1" style="stop-color:#1D1D1B"/>
		</linearGradient>
		<polygon class="st12" points="819.5,3.2 830.1,13.9 703.6,180.2 695.5,188.4 		"/>
	</g>
	<g class="st2">
		<linearGradient id="SVGID_11_" gradientUnits="userSpaceOnUse" x1="677.0009" y1="100.6026" x2="741.6247" y2="100.6026">
			<stop  offset="0" style="stop-color:#FFFFFF"/>
			<stop  offset="1" style="stop-color:#1D1D1B"/>
		</linearGradient>
		<polygon class="st13" points="683,160.8 677,160.8 727.9,40.4 741.6,40.4 		"/>
	</g>
	<g class="st2">
		
			<linearGradient id="SVGID_12_" gradientUnits="userSpaceOnUse" x1="554.4042" y1="100.9343" x2="626.7289" y2="100.9343" gradientTransform="matrix(-1 0 0 -1 1482.4432 201.8685)">
			<stop  offset="0" style="stop-color:#FFFFFF"/>
			<stop  offset="1" style="stop-color:#1D1D1B"/>
		</linearGradient>
		<polygon class="st14" points="924.3,40.7 928,40.8 868.2,161.2 855.7,161.2 		"/>
	</g>
	<g class="st2">
		<linearGradient id="SVGID_13_" gradientUnits="userSpaceOnUse" x1="391.8029" y1="100.5567" x2="413.2943" y2="100.5567">
			<stop  offset="0" style="stop-color:#FFFFFF"/>
			<stop  offset="1" style="stop-color:#1D1D1B"/>
		</linearGradient>
		<polygon class="st15" points="403.1,160.8 391.8,40.4 404.1,40.4 413.3,160.8 		"/>
	</g>
	<g class="st2">
		<linearGradient id="SVGID_14_" gradientUnits="userSpaceOnUse" x1="0.4997" y1="95.8029" x2="154.0808" y2="95.8029">
			<stop  offset="0" style="stop-color:#FFFFFF"/>
			<stop  offset="1" style="stop-color:#1D1D1B"/>
		</linearGradient>
		<polygon class="st16" points="0.5,151.2 0.5,144.5 152.6,40.4 154.1,40.4 		"/>
	</g>
	<g class="st2">
		<linearGradient id="SVGID_15_" gradientUnits="userSpaceOnUse" x1="649.0613" y1="100.5568" x2="663.9543" y2="100.5568">
			<stop  offset="0" style="stop-color:#FFFFFF"/>
			<stop  offset="1" style="stop-color:#1D1D1B"/>
		</linearGradient>
		<polygon class="st17" points="659.4,160.8 649.4,160.8 649.1,40.4 664,40.4 		"/>
	</g>
</g>
<g id="Слой_2">
	<rect width="964.8" height="150.6"/>
	<g class="st18">
		<linearGradient id="SVGID_16_" gradientUnits="userSpaceOnUse" x1="0" y1="51.2712" x2="95.0479" y2="51.2712">
			<stop  offset="0" style="stop-color:#FFFFFF"/>
			<stop  offset="1" style="stop-color:#1D1D1B"/>
		</linearGradient>
		<polygon class="st19" points="0,75.3 0,61.9 95,27.3 95,38 		"/>
	</g>
	<g class="st18">
		<linearGradient id="SVGID_17_" gradientUnits="userSpaceOnUse" x1="675.9656" y1="118.1332" x2="964.8134" y2="118.1332">
			<stop  offset="0" style="stop-color:#FFFFFF"/>
			<stop  offset="1" style="stop-color:#1D1D1B"/>
		</linearGradient>
		<polygon class="st20" points="701.5,152.5 676,150.6 964.8,83.8 964.8,101.3 		"/>
	</g>
	<g class="st18">
		<linearGradient id="SVGID_18_" gradientUnits="userSpaceOnUse" x1="675.9656" y1="88.9143" x2="109.7835" y2="88.9143">
			<stop  offset="0" style="stop-color:#FFFFFF"/>
			<stop  offset="1" style="stop-color:#1D1D1B"/>
		</linearGradient>
		<polygon class="st21" points="621.3,150 109.8,36.6 112.5,27.3 676,150.6 		"/>
	</g>
</g>
</svg>
