<?xml version="1.0" encoding="utf-8"?>
<!-- Generator: Adobe Illustrator 19.0.1, SVG Export Plug-In . SVG Version: 6.00 Build 0)  -->
<svg version="1.1" id="logo" xmlns="http://www.w3.org/2000/svg" xmlns:xlink="http://www.w3.org/1999/xlink" x="0px" y="0px"
	 viewBox="-388 562.8 126 67.8" style="enable-background:new -388 562.8 126 67.8;" xml:space="preserve">
<g>
	<polygon points="-269.2,567.8 -279.6,567.8 -307,597.2 -282,629.5 -271.6,629.5 -296.6,597.2 	"/>
	<path d="M-343.8,564.4c-20.7,0-34.2,15.2-34.2,33.1c0,17.5,13.2,33.1,34,33.1c21.6,0,34.5-15.7,34.5-33.1
		C-309.5,579.5-322.7,564.4-343.8,564.4z M-343.9,622.3c-15.7,0-25.5-11.7-25.5-24.9c0-13.4,10.2-24.9,25.7-24.9
		c15.8,0,25.7,11.3,25.7,24.9C-318,610.6-327.7,622.3-343.9,622.3z"/>
</g>
</svg>
