<?xml version="1.0" encoding="utf-8"?>
<!-- Generator: Adobe Illustrator 19.0.1, SVG Export Plug-In . SVG Version: 6.00 Build 0)  -->
<svg version="1.1" id="Слой_1" xmlns="http://www.w3.org/2000/svg" xmlns:xlink="http://www.w3.org/1999/xlink" x="0px" y="0px"
	 viewBox="0 0 960 119.1" style="enable-background:new 0 0 960 119.1;" xml:space="preserve">
<style type="text/css">
	.st0{opacity:0.44;}
	.st1{fill:url(#SVGID_1_);}
	.st2{fill:url(#SVGID_2_);}
	.st3{fill:url(#SVGID_3_);}
	.st4{fill:url(#SVGID_4_);}
	.st5{fill:url(#SVGID_5_);}
	.st6{fill:url(#SVGID_6_);}
	.st7{fill:url(#SVGID_7_);}
	.st8{fill:url(#SVGID_8_);}
	.st9{fill:url(#SVGID_9_);}
	.st10{fill:url(#SVGID_10_);}
	.st11{fill:url(#SVGID_11_);}
	.st12{fill:url(#SVGID_12_);}
	.st13{fill:url(#SVGID_13_);}
	.st14{fill:url(#SVGID_14_);}
	.st15{fill:url(#SVGID_15_);}
</style>
<g>
	<rect y="0.1" width="968" height="120.8"/>
</g>
<g class="st0">
	<linearGradient id="SVGID_1_" gradientUnits="userSpaceOnUse" x1="0.4997" y1="60.2859" x2="196.3283" y2="60.2859">
		<stop  offset="0" style="stop-color:#FFFFFF"/>
		<stop  offset="1" style="stop-color:#1D1D1B"/>
	</linearGradient>
	<polygon class="st1" points="194.4,120.5 0.5,0.1 18.3,0.1 196.3,120.5 	"/>
</g>
<g class="st0">
	
		<linearGradient id="SVGID_2_" gradientUnits="userSpaceOnUse" x1="498.8529" y1="60.6634" x2="653.6815" y2="60.6634" gradientTransform="matrix(-1 0 0 -1 1129.5344 121.3268)">
		<stop  offset="0" style="stop-color:#FFFFFF"/>
		<stop  offset="1" style="stop-color:#1D1D1B"/>
	</linearGradient>
	<polygon class="st2" points="477.8,0.5 630.7,120.9 612.9,120.9 475.9,0.5 	"/>
</g>
<g class="st0">
	<linearGradient id="SVGID_3_" gradientUnits="userSpaceOnUse" x1="123.418" y1="60.4843" x2="156.0392" y2="60.4843">
		<stop  offset="0" style="stop-color:#FFFFFF"/>
		<stop  offset="1" style="stop-color:#1D1D1B"/>
	</linearGradient>
	<polygon class="st3" points="128.4,120.9 123.4,120.1 149.6,0.1 156,0.1 	"/>
</g>
<g class="st0">
	<linearGradient id="SVGID_4_" gradientUnits="userSpaceOnUse" x1="149.5641" y1="60.3052" x2="243.0778" y2="60.3052">
		<stop  offset="0" style="stop-color:#FFFFFF"/>
		<stop  offset="1" style="stop-color:#1D1D1B"/>
	</linearGradient>
	<polygon class="st4" points="235.4,120.5 149.6,0.1 162.1,0.1 243.1,120.5 	"/>
</g>
<g class="st0">
	
		<linearGradient id="SVGID_5_" gradientUnits="userSpaceOnUse" x1="420.0961" y1="60.4843" x2="452.7173" y2="60.4843" gradientTransform="matrix(-1 0 0 -1 959.8519 120.9686)">
		<stop  offset="0" style="stop-color:#FFFFFF"/>
		<stop  offset="1" style="stop-color:#1D1D1B"/>
	</linearGradient>
	<polygon class="st5" points="534.8,0.1 539.8,0.9 513.6,120.9 507.1,120.9 	"/>
</g>
<g class="st0">
	
		<linearGradient id="SVGID_6_" gradientUnits="userSpaceOnUse" x1="446.2422" y1="60.3052" x2="539.7559" y2="60.3052" gradientTransform="matrix(-1 0 0 -1 959.8519 120.9686)">
		<stop  offset="0" style="stop-color:#FFFFFF"/>
		<stop  offset="1" style="stop-color:#1D1D1B"/>
	</linearGradient>
	<polygon class="st6" points="427.8,0.5 513.6,120.9 501.1,120.9 420.1,0.5 	"/>
</g>
<g class="st0">
	<linearGradient id="SVGID_7_" gradientUnits="userSpaceOnUse" x1="716.2263" y1="59.5417" x2="984.8472" y2="59.5417">
		<stop  offset="0" style="stop-color:#FFFFFF"/>
		<stop  offset="1" style="stop-color:#1D1D1B"/>
	</linearGradient>
	<polygon class="st7" points="742.2,119.8 716.2,119.7 973.1,-0.7 984.8,-0.7 	"/>
</g>
<g class="st0">
	<linearGradient id="SVGID_8_" gradientUnits="userSpaceOnUse" x1="282.1201" y1="59.5417" x2="369.6752" y2="59.5417">
		<stop  offset="0" style="stop-color:#FFFFFF"/>
		<stop  offset="1" style="stop-color:#1D1D1B"/>
	</linearGradient>
	<polygon class="st8" points="290.5,119.8 282.1,119.6 360.8,-0.7 369.7,-0.7 	"/>
</g>
<g class="st0">
	<linearGradient id="SVGID_9_" gradientUnits="userSpaceOnUse" x1="234.4281" y1="60.2859" x2="262.2433" y2="60.2859">
		<stop  offset="0" style="stop-color:#FFFFFF"/>
		<stop  offset="1" style="stop-color:#1D1D1B"/>
	</linearGradient>
	<polygon class="st9" points="256.3,120.6 234.4,0.1 250.8,0 262.2,120.4 	"/>
</g>
<g class="st0">
	
		<linearGradient id="SVGID_10_" gradientUnits="userSpaceOnUse" x1="1539.6552" y1="1789.6147" x2="1758.2854" y2="1789.6147" gradientTransform="matrix(-0.7071 0.7071 -0.7071 -0.7071 3188.9365 154.9827)">
		<stop  offset="0" style="stop-color:#FFFFFF"/>
		<stop  offset="1" style="stop-color:#1D1D1B"/>
	</linearGradient>
	<polygon class="st10" points="819.5,-37 830.1,-26.4 703.6,139.9 695.5,148.1 	"/>
</g>
<g class="st0">
	<linearGradient id="SVGID_11_" gradientUnits="userSpaceOnUse" x1="677.0009" y1="60.3318" x2="741.6247" y2="60.3318">
		<stop  offset="0" style="stop-color:#FFFFFF"/>
		<stop  offset="1" style="stop-color:#1D1D1B"/>
	</linearGradient>
	<polygon class="st11" points="683,120.6 677,120.5 727.9,0.1 741.6,0.1 	"/>
</g>
<g class="st0">
	
		<linearGradient id="SVGID_12_" gradientUnits="userSpaceOnUse" x1="554.4042" y1="60.6634" x2="626.7289" y2="60.6634" gradientTransform="matrix(-1 0 0 -1 1482.4432 121.3268)">
		<stop  offset="0" style="stop-color:#FFFFFF"/>
		<stop  offset="1" style="stop-color:#1D1D1B"/>
	</linearGradient>
	<polygon class="st12" points="924.3,0.4 928,0.5 868.2,120.9 855.7,120.9 	"/>
</g>
<g class="st0">
	<linearGradient id="SVGID_13_" gradientUnits="userSpaceOnUse" x1="391.8029" y1="60.2859" x2="413.2943" y2="60.2859">
		<stop  offset="0" style="stop-color:#FFFFFF"/>
		<stop  offset="1" style="stop-color:#1D1D1B"/>
	</linearGradient>
	<polygon class="st13" points="403.1,120.5 391.8,0.1 404.1,0.1 413.3,120.5 	"/>
</g>
<g class="st0">
	<linearGradient id="SVGID_14_" gradientUnits="userSpaceOnUse" x1="0.4997" y1="55.5321" x2="154.0808" y2="55.5321">
		<stop  offset="0" style="stop-color:#FFFFFF"/>
		<stop  offset="1" style="stop-color:#1D1D1B"/>
	</linearGradient>
	<polygon class="st14" points="0.5,111 0.5,104.2 152.6,0.1 154.1,0.1 	"/>
</g>
<g class="st0">
	<linearGradient id="SVGID_15_" gradientUnits="userSpaceOnUse" x1="649.0613" y1="60.2859" x2="663.9543" y2="60.2859">
		<stop  offset="0" style="stop-color:#FFFFFF"/>
		<stop  offset="1" style="stop-color:#1D1D1B"/>
	</linearGradient>
	<polygon class="st15" points="659.4,120.5 649.4,120.5 649.1,0.1 664,0.1 	"/>
</g>
</svg>
